<svg width="975" height="200" viewBox="0 0 975 200" fill="none" xmlns="http://www.w3.org/2000/svg">
<path fill-rule="evenodd" clip-rule="evenodd" d="M67.8628 55.7192L42.435 45.1381C41.2799 44.6575 40 45.4905 40 46.7228V154.277C40 155.559 41.3754 156.391 42.5406 155.813L68.0739 143.165C69.255 142.58 70 141.391 70 140.091V58.8888C70 57.5064 69.1582 56.2581 67.8628 55.7192ZM154.066 55.7192L178.646 45.1381C179.763 44.6575 181 45.4905 181 46.7228V154.277C181 155.559 179.67 156.391 178.544 155.813L153.862 143.165C152.72 142.58 152 141.391 152 140.091V58.8888C152 57.5064 152.814 56.2581 154.066 55.7192ZM83.8669 82.0323L109.121 69.3653C110.081 68.8834 111.216 68.8781 112.181 69.3505L138.103 82.0403C139.265 82.609 140 83.7789 140 85.0597V115.692C140 116.963 139.276 118.126 138.127 118.699L112.205 131.638C111.227 132.126 110.071 132.12 109.097 131.623L83.843 118.707C82.7109 118.128 82 116.974 82 115.715V85.0369C82 83.768 82.7216 82.6069 83.8669 82.0323Z" fill="url(#paint0_linear_241_135)"/>
<path d="M629.153 75H620.962V124.073H629.153V75Z" fill="#333333"/>
<path d="M810.482 75H802.291V124.073H810.482V104.434C810.482 101.536 811.218 99.1962 812.724 97.3747L812.73 97.3672C814.158 95.5598 816.029 94.6886 818.386 94.6886C821.061 94.6886 823.052 95.456 824.321 96.9737C825.479 98.4592 826.152 100.599 826.152 103.574V124.073H834.343V102.383C834.343 97.8207 833.295 94.2535 831.125 91.8247L831.124 91.8232C828.809 89.2538 825.431 88.0379 821.075 88.0379C818.752 88.0379 816.682 88.443 814.815 89.4058C813.129 90.1889 811.685 91.3754 810.482 92.8827V75Z" fill="#333333"/>
<path d="M288.19 75.2647C286.656 75.2647 285.369 75.6887 284.307 76.7049C283.243 77.6556 282.715 78.9044 282.715 80.4101C282.715 81.8521 283.244 83.162 284.301 84.1758L284.307 84.1814L284.313 84.1869C285.361 85.1213 286.638 85.6216 288.19 85.6216C289.669 85.6216 291.016 85.1232 292.066 84.1869L292.072 84.1814L292.078 84.1758C293.12 83.176 293.733 81.9378 293.733 80.4101C293.733 78.9044 293.205 77.6556 292.141 76.7049C291.075 75.6852 289.717 75.2647 288.19 75.2647Z" fill="#333333"/>
<path d="M345.858 75.2647C344.324 75.2647 343.037 75.6887 341.975 76.7049C340.911 77.6556 340.383 78.9044 340.383 80.4101C340.383 81.8521 340.913 83.162 341.969 84.1758L341.975 84.1814L341.981 84.1869C343.029 85.1213 344.306 85.6216 345.858 85.6216C347.337 85.6216 348.684 85.1232 349.734 84.1869L349.741 84.1814L349.746 84.1758C350.788 83.176 351.401 81.9378 351.401 80.4101C351.401 78.9044 350.873 77.6556 349.81 76.7049C348.744 75.6852 347.385 75.2647 345.858 75.2647Z" fill="#333333"/>
<path d="M472.534 75.2647C471 75.2647 469.713 75.6888 468.651 76.7051C467.588 77.6557 467.059 78.9045 467.059 80.4101C467.059 81.8521 467.589 83.162 468.645 84.1758L468.651 84.1814L468.657 84.1869C469.706 85.1213 470.982 85.6216 472.534 85.6216C474.014 85.6216 475.36 85.1232 476.411 84.1869L476.417 84.1814L476.423 84.1758C477.465 83.176 478.078 81.9378 478.078 80.4101C478.078 78.9045 477.549 77.6557 476.486 76.7051C475.42 75.6852 474.062 75.2647 472.534 75.2647Z" fill="#333333"/>
<path d="M847.604 75.2647C846.07 75.2647 844.783 75.6887 843.721 76.7048C842.657 77.6554 842.129 78.9043 842.129 80.4101C842.129 81.8521 842.658 83.162 843.715 84.1758L843.721 84.1814L843.727 84.1869C844.775 85.1213 846.052 85.6216 847.604 85.6216C849.083 85.6216 850.43 85.1232 851.48 84.1869L851.487 84.1814L851.492 84.1758C852.534 83.176 853.147 81.9378 853.147 80.4101C853.147 78.9043 852.619 77.6554 851.555 76.7047C850.489 75.6851 849.131 75.2647 847.604 75.2647Z" fill="#333333"/>
<path d="M230.619 75.9265H221V124.073H229.398V91.3223L244.052 124.073H251.102L265.757 91.3223V124.073H274.155V75.9265H264.535L247.611 113.387L230.619 75.9265Z" fill="#333333"/>
<path d="M425.705 75.9265H416.621L434.609 124.073H444.32L462.308 75.9265H453.224L439.498 114.529L425.705 75.9265Z" fill="#333333"/>
<path d="M669.357 75.9265H659.739V124.073H668.136V91.3222L682.791 124.073H689.841L704.496 91.3223V124.073H712.893V75.9265H703.274L686.35 113.387L669.357 75.9265Z" fill="#333333"/>
<path d="M526.268 80.824H518.077V88.9644H511.457V95.6813H518.077V115.09C518.077 117.866 518.712 120.047 520.196 121.616C521.692 123.264 524.111 124.073 527.207 124.073H533.509V117.357H528.379C527.583 117.357 527.081 117.127 526.763 116.829C526.456 116.477 526.268 115.942 526.268 115.09V95.6813H534.406V88.9644H526.268V80.824Z" fill="#333333"/>
<path d="M377.711 88.0379C375.454 88.0379 373.384 88.4438 371.517 89.4072C369.996 90.138 368.621 91.1446 367.393 92.4602V88.9644H359.202V124.073H367.393V103.067C367.663 100.39 368.657 98.3178 370.221 96.8166C371.647 95.4477 373.397 94.8209 375.366 94.8209C378.052 94.8209 380.006 95.529 381.292 96.8698C382.58 98.2128 383.271 100.266 383.271 103.111V124.073H391.461V102.515C391.461 97.7508 390.325 94.1117 387.993 91.6652C385.658 89.2158 382.197 88.0379 377.711 88.0379Z" fill="#333333"/>
<path d="M503.824 88.0379C501.539 88.0379 499.513 88.6552 497.772 90.0416C496.727 90.747 495.803 91.7 495.023 92.8927V88.9644H486.832V124.073H495.023V105.493C495.023 102.612 495.887 100.286 497.65 98.5312C499.299 96.8855 501.19 96.0784 503.272 96.0784C504.891 96.0784 506.573 96.2726 508.321 96.7886L508.884 96.955V89.0621L508.632 88.9412C507.311 88.3069 505.653 88.0379 503.824 88.0379Z" fill="#333333"/>
<path fill-rule="evenodd" clip-rule="evenodd" d="M738.705 88.0379C734.256 88.0379 730.581 88.7696 727.864 90.4145C724.712 92.2042 722.711 95.0976 721.93 98.9166L721.828 99.4114L729.95 100.079L730.032 99.6982C730.419 97.9046 731.374 96.6225 732.918 95.7581L732.923 95.7554C734.212 95.0129 735.99 94.6224 738.222 94.6224C740.857 94.6224 742.752 95.2073 743.984 96.2991C745.205 97.3808 745.851 99.0267 745.851 101.324V102.278L738.28 102.466C733.004 102.599 728.771 103.597 725.775 105.649C722.476 107.784 720.817 110.904 720.817 114.891C720.817 117.872 721.981 120.316 724.359 122.187C726.53 124.058 729.537 125 733.326 125C736.553 125 739.374 124.394 741.781 123.307L741.79 123.303C743.544 122.461 745.059 121.34 746.333 119.98V124.073H753.972V101.787C753.972 97.5389 752.847 94.2341 750.603 91.9422L750.602 91.9409C748.004 89.3088 744.006 88.0379 738.705 88.0379ZM738.785 108.454L745.851 108.268V109.795C745.851 112.288 744.754 114.416 742.637 116.131C740.512 117.851 737.99 118.746 734.981 118.746C733.188 118.746 731.774 118.301 730.767 117.515L730.762 117.511L730.757 117.508C729.688 116.723 729.215 115.793 729.215 114.626C729.215 112.648 729.976 111.172 731.507 110.151C733.07 109.11 735.472 108.52 738.783 108.454L738.785 108.454Z" fill="#333333"/>
<path d="M778.949 88.0379C773.329 88.0379 768.924 89.8635 765.723 93.5501C762.744 96.954 761.268 101.301 761.268 106.552C761.268 111.935 762.744 116.285 765.796 119.692C768.93 123.244 773.265 125 778.812 125C783.433 125 787.261 123.857 790.117 121.596L790.122 121.592C792.982 119.259 794.885 115.711 795.727 111.067L795.822 110.54H787.668L787.616 110.926C787.282 113.431 786.387 115.269 784.967 116.486C783.544 117.704 781.537 118.349 778.881 118.349C775.824 118.349 773.618 117.273 772.128 115.283L772.121 115.274C770.481 113.197 769.666 110.265 769.666 106.486C769.666 102.704 770.483 99.7814 772.18 97.7758L772.185 97.77L772.19 97.764C773.82 95.6988 776.032 94.6886 778.949 94.6886C781.374 94.6886 783.272 95.2058 784.689 96.257L784.694 96.2608L784.7 96.2644C786.095 97.2386 787.016 98.8409 787.484 101.085L787.558 101.439H795.675L795.59 100.92C794.886 96.5924 793.044 93.3052 790.18 91.1066L790.175 91.1025L790.169 91.0985C787.315 89.0437 783.561 88.0379 778.949 88.0379Z" fill="#333333"/>
<path d="M879.457 88.0379C877.2 88.0379 875.13 88.4439 873.263 89.4074C871.742 90.1381 870.367 91.1447 869.139 92.4602V88.9644H860.948V124.073H869.139V103.067C869.409 100.39 870.402 98.3178 871.967 96.8166C873.393 95.4477 875.143 94.8209 877.112 94.8209C879.798 94.8209 881.752 95.529 883.038 96.8698C884.326 98.2128 885.016 100.266 885.016 103.111V124.073H893.207V102.515C893.207 97.7508 892.071 94.1117 889.739 91.6652C887.404 89.2158 883.942 88.0379 879.457 88.0379Z" fill="#333333"/>
<path fill-rule="evenodd" clip-rule="evenodd" d="M917.414 88.0379C912.073 88.0379 907.738 89.7956 904.605 93.4134C901.351 96.9463 899.802 101.293 899.802 106.486C899.802 112.206 901.488 116.762 904.897 120.17C908.03 123.382 912.359 125 917.69 125C920.971 125 923.883 124.381 926.416 123.152C927.576 122.59 928.853 121.829 930.002 120.979C931.145 120.132 932.187 119.178 932.853 118.224L933.091 117.882L928.1 113.794C926.634 115.179 925.371 116.518 923.551 117.411C921.759 118.289 919.714 118.349 917.621 118.349C914.826 118.349 912.341 117.244 910.782 115.625C909.3 114.024 908.451 111.318 908.451 108.918H935V106.696C935 101.786 933.629 97.0923 931.067 93.8962C927.93 89.9272 923.305 88.0379 917.414 88.0379ZM911.376 96.879C912.929 95.3909 914.947 94.6886 917.621 94.6886C920.445 94.6886 922.585 95.4133 924.101 96.8066C925.531 98.1201 926.459 100.076 926.843 102.73H908.621C909.067 100.152 910.031 98.2303 911.376 96.879Z" fill="#333333"/>
<path fill-rule="evenodd" clip-rule="evenodd" d="M596.662 88.1751C591.661 88.1751 586.463 89.1362 582.545 92.4988L582.168 92.8226L587.134 97.5387L587.404 97.4095C589.907 96.2138 592.336 95.0566 595.991 95.0566C599.346 95.0566 601.392 96.0723 602.616 97.6554C603.768 99.144 604.252 101.208 604.317 103.618C604.288 103.611 604.258 103.604 604.227 103.597C604.166 103.582 604.101 103.567 604.033 103.551C603.495 103.427 602.725 103.263 601.789 103.103C599.921 102.784 597.384 102.481 594.726 102.548C590.989 102.642 587.144 103.709 584.22 105.687C581.288 107.67 579.256 110.594 579.256 114.373C579.256 117.353 580.42 119.798 582.798 121.669C584.969 123.54 587.976 124.482 591.765 124.482C594.924 124.482 597.777 124.41 600.221 123.307L600.23 123.303C601.951 122.477 603.479 121.631 604.773 120.345V124.073H612.412V102.985C612.412 98.0905 610.766 94.3686 607.939 91.8766C605.121 89.3926 601.18 88.1751 596.662 88.1751ZM594.794 108.446C597.705 108.06 601.328 108.224 604.324 109.295V111.378C604.324 113.636 603.461 115.145 602.1 116.17C600.713 117.215 598.776 117.782 596.609 118.05C594.989 118.25 592.531 118.313 590.498 117.799C589.481 117.543 588.608 117.151 587.995 116.594C587.396 116.051 587.03 115.337 587.03 114.373C587.03 112.537 587.899 111.215 589.301 110.264C590.722 109.299 592.682 108.726 594.794 108.446Z" fill="#333333"/>
<path d="M292.285 88.9644H284.094V124.073H292.285V88.9644Z" fill="#333333"/>
<path d="M309.495 88.9644H299.818L312.507 105.428L298.236 124.073H307.979L317.133 111.349L326.22 124.073H335.892L321.692 105.429L334.381 88.9644H324.703L317.133 99.5083L309.495 88.9644Z" fill="#333333"/>
<path d="M349.953 88.9644H341.762V124.073H349.953V88.9644Z" fill="#333333"/>
<path d="M476.629 88.9644H468.439V124.073H476.629V88.9644Z" fill="#333333"/>
<path d="M548.79 88.9644H540.599V110.721C540.599 115.384 541.682 118.972 543.935 121.394C546.192 123.82 549.551 125 553.936 125C558.181 125 561.769 123.381 564.736 120.175V124.073H572.927V88.9644H564.736V110.269C564.131 112.683 563.006 114.634 561.437 116.079C559.84 117.483 558.215 118.217 556.418 118.217C553.654 118.217 551.725 117.504 550.6 116.304L550.591 116.295C549.403 115.095 548.79 113.121 548.79 110.258V88.9644Z" fill="#333333"/>
<path d="M851.699 88.9644H843.508V124.073H851.699V88.9644Z" fill="#333333"/>
<defs>
<linearGradient id="paint0_linear_241_135" x1="221.187" y1="68.5997" x2="221.187" y2="132.415" gradientUnits="userSpaceOnUse">
<stop offset="0.0026967" stop-color="#00C0FF"/>
<stop offset="1" stop-color="#2E65CB"/>
</linearGradient>
</defs>
</svg>
