<svg width="1146" height="200" viewBox="0 0 1146 200" fill="none" xmlns="http://www.w3.org/2000/svg">
<path fill-rule="evenodd" clip-rule="evenodd" d="M87.8628 55.7192L62.435 45.1381C61.2799 44.6575 60 45.4905 60 46.7228V154.277C60 155.559 61.3754 156.391 62.5406 155.813L88.0739 143.165C89.255 142.58 90 141.391 90 140.091V58.8888C90 57.5064 89.1582 56.2581 87.8628 55.7192ZM174.066 55.7192L198.646 45.1381C199.763 44.6575 201 45.4905 201 46.7228V154.277C201 155.559 199.67 156.391 198.544 155.813L173.862 143.165C172.72 142.58 172 141.391 172 140.091V58.8888C172 57.5064 172.814 56.2581 174.066 55.7192ZM103.867 82.0323L129.121 69.3653C130.081 68.8834 131.216 68.8781 132.181 69.3505L158.103 82.0403C159.265 82.609 160 83.7789 160 85.0597V115.692C160 116.963 159.276 118.126 158.127 118.699L132.205 131.638C131.227 132.126 130.071 132.12 129.097 131.623L103.843 118.707C102.711 118.128 102 116.974 102 115.715V85.0369C102 83.768 102.722 82.6069 103.867 82.0323Z" fill="url(#paint0_linear_241_135)"/>
<path d="M724.376 72.5H715.075V127.462H724.376V72.5Z" fill="#333333"/>
<path d="M939.443 72.5H930.142V127.462H939.443V105.466C939.443 102.22 940.279 99.5997 941.988 97.5597L941.995 97.5512C943.617 95.527 945.741 94.5512 948.418 94.5512C951.456 94.5512 953.717 95.4107 955.157 97.1105C956.472 98.7743 957.237 101.171 957.237 104.503V127.462H966.537V103.168C966.537 98.0591 965.347 94.0639 962.884 91.3436L962.883 91.342C960.253 88.4643 956.418 87.1024 951.472 87.1024C948.833 87.1024 946.483 87.5562 944.363 88.6345C942.448 89.5115 940.809 90.8404 939.443 92.5286V72.5Z" fill="#333333"/>
<path d="M319.795 72.7965C318.053 72.7965 316.592 73.2713 315.386 74.4095C314.178 75.4742 313.578 76.8729 313.578 78.5593C313.578 80.1743 314.179 81.6414 315.379 82.7769L315.386 82.7832L315.393 82.7893C316.583 83.8358 318.033 84.3962 319.795 84.3962C321.475 84.3962 323.004 83.838 324.197 82.7893L324.204 82.7832L324.211 82.7769C325.393 81.6571 326.09 80.2703 326.09 78.5593C326.09 76.8729 325.49 75.4742 324.282 74.4095C323.072 73.2674 321.53 72.7965 319.795 72.7965Z" fill="#333333"/>
<path d="M387.278 72.7965C385.536 72.7965 384.075 73.2713 382.869 74.4095C381.661 75.4742 381.061 76.8729 381.061 78.5593C381.061 80.1743 381.662 81.6414 382.862 82.7769L382.869 82.7832L382.876 82.7893C384.066 83.8358 385.516 84.3962 387.278 84.3962C388.958 84.3962 390.487 83.838 391.68 82.7893L391.687 82.7832L391.694 82.7769C392.877 81.6571 393.573 80.2703 393.573 78.5593C393.573 76.8729 392.973 75.4742 391.765 74.4095C390.555 73.2674 389.013 72.7965 387.278 72.7965Z" fill="#333333"/>
<path d="M540.368 72.7965C538.626 72.7965 537.165 73.2714 535.959 74.4097C534.751 75.4744 534.152 76.873 534.152 78.5593C534.152 80.1743 534.753 81.6414 535.952 82.7769L535.959 82.7832L535.966 82.7893C537.157 83.8358 538.606 84.3962 540.368 84.3962C542.048 84.3962 543.577 83.838 544.77 82.7893L544.777 82.7832L544.784 82.7769C545.967 81.6571 546.663 80.2703 546.663 78.5593C546.663 76.873 546.063 75.4744 544.856 74.4097C543.645 73.2675 542.103 72.7965 540.368 72.7965Z" fill="#333333"/>
<path d="M983.678 72.7965C981.936 72.7965 980.475 73.2713 979.269 74.4093C978.061 75.4741 977.461 76.8728 977.461 78.5593C977.461 80.1743 978.062 81.6414 979.262 82.7769L979.268 82.7832L979.275 82.7893C980.466 83.8358 981.916 84.3962 983.678 84.3962C985.358 84.3962 986.887 83.838 988.08 82.7893L988.087 82.7832L988.093 82.7769C989.276 81.6571 989.972 80.2703 989.972 78.5593C989.972 76.8728 989.372 75.474 988.165 74.4093C986.954 73.2674 985.412 72.7965 983.678 72.7965Z" fill="#333333"/>
<path d="M252.422 73.5377H241.5V127.462H251.036V90.781L267.676 127.462H275.682L292.322 90.781V127.462H301.858V73.5377H290.935L271.717 115.494L252.422 73.5377Z" fill="#333333"/>
<path d="M486.193 73.5377H475.878L496.303 127.462H507.331L527.756 73.5377H517.441L501.855 116.773L486.193 73.5377Z" fill="#333333"/>
<path d="M776.194 73.5377H765.272V127.462H774.807V90.7808L791.448 127.462H799.453L816.094 90.781V127.462H825.63V73.5377H814.707L795.489 115.494L776.194 73.5377Z" fill="#333333"/>
<path d="M602.384 79.0229H593.083V88.1402H585.565V95.6631H593.083V117.4C593.083 120.51 593.804 122.953 595.489 124.71C597.188 126.556 599.934 127.462 603.45 127.462H610.606V119.939H604.781C603.877 119.939 603.307 119.682 602.946 119.348C602.597 118.954 602.384 118.355 602.384 117.4V95.6631H611.624V88.1402H602.384V79.0229Z" fill="#333333"/>
<path d="M425.53 87.1024C422.967 87.1024 420.617 87.5571 418.497 88.6361C416.77 89.4545 415.209 90.5819 413.814 92.0554V88.1402H404.513V127.462H413.814V103.935C414.121 100.937 415.249 98.6159 417.025 96.9345C418.645 95.4014 420.632 94.6995 422.868 94.6995C425.918 94.6995 428.136 95.4924 429.596 96.9941C431.059 98.4984 431.843 100.798 431.843 103.984V127.462H441.144V103.317C441.144 97.9809 439.854 93.9051 437.205 91.165C434.554 88.4217 430.624 87.1024 425.53 87.1024Z" fill="#333333"/>
<path d="M576.898 87.1024C574.304 87.1024 572.003 87.7938 570.027 89.3466C568.84 90.1367 567.79 91.204 566.905 92.5398V88.1402H557.604V127.462H566.905V106.652C566.905 103.426 567.886 100.82 569.888 98.855C571.76 97.0118 573.908 96.1078 576.271 96.1078C578.11 96.1078 580.02 96.3253 582.005 96.9032L582.645 97.0896V88.2495L582.358 88.1141C580.857 87.4037 578.975 87.1024 576.898 87.1024Z" fill="#333333"/>
<path fill-rule="evenodd" clip-rule="evenodd" d="M855.939 87.1024C850.887 87.1024 846.714 87.922 843.629 89.7642C840.049 91.7687 837.778 95.0093 836.89 99.2865L836.775 99.8407L845.997 100.589L846.091 100.162C846.53 98.1531 847.615 96.7171 849.368 95.749L849.373 95.7461C850.837 94.9145 852.856 94.4771 855.391 94.4771C858.383 94.4771 860.534 95.1322 861.934 96.355C863.32 97.5665 864.053 99.41 864.053 101.982V103.051L855.457 103.262C849.466 103.411 844.659 104.529 841.256 106.827C837.511 109.218 835.627 112.713 835.627 117.178C835.627 120.516 836.949 123.254 839.649 125.349C842.114 127.445 845.529 128.5 849.831 128.5C853.496 128.5 856.698 127.821 859.431 126.604L859.442 126.599C861.434 125.656 863.155 124.401 864.601 122.877V127.462H873.275V102.501C873.275 97.7436 871.997 94.0422 869.45 91.4753L869.448 91.4738C866.498 88.5259 861.958 87.1024 855.939 87.1024ZM856.03 109.969L864.053 109.76V111.47C864.053 114.263 862.808 116.646 860.404 118.566C857.991 120.493 855.127 121.496 851.71 121.496C849.675 121.496 848.069 120.997 846.925 120.117L846.919 120.113L846.914 120.108C845.7 119.23 845.163 118.189 845.163 116.881C845.163 114.666 846.027 113.013 847.766 111.87C849.54 110.704 852.268 110.042 856.027 109.969L856.03 109.969Z" fill="#333333"/>
<path d="M902.637 87.1024C896.255 87.1024 891.253 89.1471 887.618 93.2761C884.236 97.0885 882.56 101.957 882.56 107.838C882.56 113.867 884.235 118.739 887.702 122.555C891.26 126.533 896.183 128.5 902.481 128.5C907.728 128.5 912.075 127.22 915.318 124.688L915.324 124.683C918.571 122.071 920.733 118.097 921.688 112.895L921.797 112.305H912.537L912.479 112.737C912.099 115.543 911.083 117.602 909.47 118.964C907.855 120.329 905.575 121.051 902.559 121.051C899.088 121.051 896.584 119.845 894.892 117.617L894.884 117.607C893.022 115.28 892.096 111.997 892.096 107.764C892.096 103.528 893.023 100.255 894.951 98.009L894.957 98.0024L894.962 97.9957C896.813 95.6827 899.324 94.5512 902.637 94.5512C905.39 94.5512 907.545 95.1305 909.155 96.3079L909.161 96.3121L909.167 96.3162C910.752 97.4072 911.797 99.2018 912.328 101.715L912.412 102.112H921.629L921.533 101.53C920.733 96.6835 918.642 93.0019 915.39 90.5394L915.384 90.5347L915.378 90.5303C912.136 88.2289 907.874 87.1024 902.637 87.1024Z" fill="#333333"/>
<path d="M1021.93 87.1024C1019.37 87.1024 1017.02 87.5571 1014.9 88.6363C1013.17 89.4547 1011.61 90.5821 1010.21 92.0554V88.1402H1000.91V127.462H1010.21V103.935C1010.52 100.937 1011.65 98.616 1013.42 96.9345C1015.04 95.4014 1017.03 94.6995 1019.27 94.6995C1022.32 94.6995 1024.54 95.4924 1026 96.9941C1027.46 98.4984 1028.24 100.798 1028.24 103.984V127.462H1037.54V103.317C1037.54 97.9809 1036.25 93.9051 1033.61 91.165C1030.95 88.4217 1027.02 87.1024 1021.93 87.1024Z" fill="#333333"/>
<path fill-rule="evenodd" clip-rule="evenodd" d="M1066.03 87.1024C1059.97 87.1024 1055.04 89.071 1051.49 93.123C1047.79 97.0799 1046.03 101.949 1046.03 107.764C1046.03 114.17 1047.95 119.274 1051.82 123.091C1055.38 126.688 1060.29 128.5 1066.34 128.5C1070.07 128.5 1073.38 127.807 1076.25 126.431C1077.57 125.8 1079.02 124.948 1080.32 123.996C1081.62 123.048 1082.81 121.98 1083.56 120.911L1083.83 120.528L1078.17 115.949C1076.5 117.5 1075.07 119.001 1073 120C1070.97 120.984 1068.64 121.051 1066.27 121.051C1063.09 121.051 1060.27 119.814 1058.5 118C1056.82 116.207 1055.85 113.176 1055.85 110.488H1086V108C1086 102.5 1084.44 97.2434 1081.53 93.6637C1077.97 89.2185 1072.72 87.1024 1066.03 87.1024ZM1059.18 97.0045C1060.94 95.3378 1063.23 94.5512 1066.27 94.5512C1069.47 94.5512 1071.9 95.3629 1073.62 96.9234C1075.25 98.3945 1076.3 100.585 1076.74 103.558H1056.05C1056.55 100.67 1057.65 98.518 1059.18 97.0045Z" fill="#333333"/>
<path fill-rule="evenodd" clip-rule="evenodd" d="M685.4 87.2561C679.721 87.2561 673.818 88.3326 669.37 92.0986L668.942 92.4614L674.581 97.7434L674.888 97.5986C677.729 96.2595 680.488 94.9634 684.637 94.9634C688.448 94.9634 690.77 96.101 692.161 97.8741C693.468 99.5412 694.019 101.852 694.092 104.552C694.059 104.544 694.025 104.536 693.99 104.528C693.921 104.512 693.847 104.495 693.769 104.477C693.159 104.338 692.284 104.154 691.222 103.976C689.1 103.619 686.22 103.279 683.202 103.354C678.958 103.46 674.592 104.654 671.272 106.869C667.942 109.091 665.635 112.365 665.635 116.598C665.635 119.936 666.957 122.674 669.657 124.769C672.122 126.865 675.536 127.92 679.839 127.92C683.426 127.92 686.666 127.84 689.441 126.604L689.451 126.599C691.406 125.674 693.141 124.727 694.61 123.286V127.462H703.285V103.843C703.285 98.3614 701.415 94.1928 698.205 91.4018C695.005 88.6197 690.53 87.2561 685.4 87.2561ZM683.279 109.959C686.584 109.527 690.699 109.711 694.1 110.911V113.244C694.1 115.772 693.12 117.462 691.574 118.611C690 119.78 687.8 120.416 685.339 120.716C683.501 120.94 680.709 121.01 678.4 120.435C677.246 120.148 676.254 119.709 675.558 119.086C674.878 118.477 674.463 117.678 674.463 116.598C674.463 114.541 675.449 113.061 677.041 111.995C678.655 110.915 680.881 110.273 683.279 109.959Z" fill="#333333"/>
<path d="M324.445 88.1402H315.144V127.462H324.445V88.1402Z" fill="#333333"/>
<path d="M344.988 88.1402H333.999L348.408 106.579L332.203 127.462H343.266L353.66 113.21L363.978 127.462H374.962L358.837 106.58L373.246 88.1402H362.256L353.66 99.9493L344.988 88.1402Z" fill="#333333"/>
<path d="M391.928 88.1402H382.627V127.462H391.928V88.1402Z" fill="#333333"/>
<path d="M545.018 88.1402H535.718V127.462H545.018V88.1402Z" fill="#333333"/>
<path d="M628.958 88.1402H619.657V112.508C619.657 117.73 620.887 121.748 623.445 124.461C626.007 127.179 629.822 128.5 634.801 128.5C639.621 128.5 643.696 126.687 647.065 123.096V127.462H656.366V88.1402H647.065V112.001C646.378 114.705 645.1 116.89 643.318 118.508C641.505 120.081 639.66 120.903 637.62 120.903C634.481 120.903 632.291 120.104 631.013 118.76L631.003 118.751C629.654 117.406 628.958 115.196 628.958 111.989V88.1402Z" fill="#333333"/>
<path d="M988.328 88.1402H979.027V127.462H988.328V88.1402Z" fill="#333333"/>
<defs>
<linearGradient id="paint0_linear_241_135" x1="241.187" y1="68.5997" x2="241.187" y2="132.415" gradientUnits="userSpaceOnUse">
<stop offset="0.0026967" stop-color="#00C0FF"/>
<stop offset="1" stop-color="#2E65CB"/>
</linearGradient>
</defs>
</svg>
