<svg width="329" height="106" viewBox="0 0 329 106" fill="none" xmlns="http://www.w3.org/2000/svg">
<path d="M128.688 88.6508L122 68.3386H125.417L128.659 78.3783L130.616 85.4497H130.732L132.718 78.3783L135.96 68.3386H139.289L132.514 88.6508H128.688Z" fill="#666666"/>
<path d="M143.697 70.8122C143.035 70.8122 142.549 70.657 142.237 70.3466C141.945 70.0362 141.799 69.6384 141.799 69.1534V68.6587C141.799 68.1737 141.945 67.776 142.237 67.4656C142.549 67.1552 143.035 67 143.697 67C144.359 67 144.836 67.1552 145.128 67.4656C145.421 67.776 145.567 68.1737 145.567 68.6587V69.1534C145.567 69.6384 145.421 70.0362 145.128 70.3466C144.836 70.657 144.359 70.8122 143.697 70.8122ZM142.091 73.5185H145.275V88.6508H142.091V73.5185Z" fill="#666666"/>
<path d="M149.82 88.6508V73.5185H153.004V76.4286H153.15C153.364 75.6526 153.812 74.9735 154.493 74.3915C155.175 73.8095 156.119 73.5185 157.326 73.5185H158.173V76.5741H156.917C155.652 76.5741 154.678 76.7778 153.997 77.1852C153.335 77.5926 153.004 78.194 153.004 78.9894V88.6508H149.82Z" fill="#666666"/>
<path d="M165.32 88.6508C164.21 88.6508 163.373 88.3695 162.808 87.8069C162.244 87.2249 161.961 86.4101 161.961 85.3624V76.1085H159.596V73.5185H160.881C161.407 73.5185 161.767 73.4021 161.961 73.1693C162.176 72.9365 162.283 72.5582 162.283 72.0344V69.3862H165.145V73.5185H168.328V76.1085H165.145V86.0608H168.095V88.6508H165.32Z" fill="#666666"/>
<path d="M180.981 86.1481H180.864C180.728 86.5168 180.543 86.8757 180.309 87.2249C180.095 87.5741 179.813 87.8845 179.462 88.1561C179.131 88.4083 178.722 88.612 178.236 88.7672C177.768 88.9224 177.223 89 176.6 89C175.023 89 173.796 88.4956 172.92 87.4868C172.064 86.478 171.635 85.0326 171.635 83.1508V73.5185H174.819V82.7434C174.819 85.0908 175.792 86.2645 177.739 86.2645C178.148 86.2645 178.547 86.216 178.936 86.119C179.326 86.0026 179.667 85.8377 179.959 85.6243C180.27 85.4109 180.514 85.1393 180.689 84.8095C180.884 84.4797 180.981 84.0917 180.981 83.6455V73.5185H184.164V88.6508H180.981V86.1481Z" fill="#666666"/>
<path d="M199.85 88.6508C199.012 88.6508 198.37 88.418 197.922 87.9524C197.474 87.4674 197.202 86.8563 197.104 86.119H196.958C196.666 87.0697 196.131 87.7875 195.352 88.2725C194.573 88.7575 193.629 89 192.519 89C190.942 89 189.725 88.5926 188.869 87.7778C188.031 86.963 187.613 85.8668 187.613 84.4894C187.613 82.9762 188.158 81.8413 189.248 81.0847C190.358 80.328 191.974 79.9497 194.096 79.9497H196.842V78.6693C196.842 77.7381 196.588 77.0203 196.082 76.5159C195.576 76.0115 194.787 75.7593 193.717 75.7593C192.821 75.7593 192.091 75.9533 191.526 76.3413C190.962 76.7293 190.485 77.224 190.095 77.8254L188.197 76.1085C188.703 75.2548 189.414 74.5564 190.329 74.0132C191.244 73.4506 192.441 73.1693 193.921 73.1693C195.888 73.1693 197.396 73.6252 198.448 74.537C199.499 75.4489 200.025 76.7584 200.025 78.4656V86.0608H201.631V88.6508H199.85ZM193.425 86.5847C194.418 86.5847 195.235 86.3713 195.878 85.9444C196.52 85.4982 196.842 84.9065 196.842 84.1693V81.9868H194.155C191.955 81.9868 190.854 82.6658 190.854 84.0238V84.5476C190.854 85.2266 191.078 85.7407 191.526 86.0899C191.994 86.4198 192.626 86.5847 193.425 86.5847Z" fill="#666666"/>
<path d="M207.993 88.6508C206.903 88.6508 206.085 88.3792 205.54 87.836C205.014 87.2734 204.751 86.4974 204.751 85.5079V67.1164H207.935V86.0608H210.037V88.6508H207.993Z" fill="#666666"/>
<path d="M235.81 73.1111H235.664L234.058 76.3995L229.59 84.5185L225.121 76.3995L223.515 73.1111H223.369V88.6508H220.215V68.3386H224.128L229.59 78.6693H229.765L235.226 68.3386H238.965V88.6508H235.81V73.1111Z" fill="#666666"/>
<path d="M254.895 88.6508C254.057 88.6508 253.415 88.418 252.967 87.9524C252.519 87.4674 252.247 86.8563 252.149 86.119H252.003C251.711 87.0697 251.176 87.7875 250.397 88.2725C249.618 88.7575 248.674 89 247.564 89C245.987 89 244.77 88.5926 243.914 87.7778C243.076 86.963 242.658 85.8668 242.658 84.4894C242.658 82.9762 243.203 81.8413 244.293 81.0847C245.403 80.328 247.019 79.9497 249.141 79.9497H251.887V78.6693C251.887 77.7381 251.633 77.0203 251.127 76.5159C250.621 76.0115 249.832 75.7593 248.762 75.7593C247.866 75.7593 247.136 75.9533 246.571 76.3413C246.007 76.7293 245.53 77.224 245.14 77.8254L243.242 76.1085C243.748 75.2548 244.459 74.5564 245.374 74.0132C246.289 73.4506 247.486 73.1693 248.966 73.1693C250.933 73.1693 252.441 73.6252 253.493 74.537C254.544 75.4489 255.07 76.7584 255.07 78.4656V86.0608H256.676V88.6508H254.895ZM248.47 86.5847C249.463 86.5847 250.28 86.3713 250.923 85.9444C251.565 85.4982 251.887 84.9065 251.887 84.1693V81.9868H249.2C247 81.9868 245.899 82.6658 245.899 84.0238V84.5476C245.899 85.2266 246.123 85.7407 246.571 86.0899C247.039 86.4198 247.671 86.5847 248.47 86.5847Z" fill="#666666"/>
<path d="M265.666 89C264.576 89 263.603 88.8157 262.746 88.4471C261.889 88.0785 261.169 87.5547 260.585 86.8757C260.001 86.1772 259.553 85.343 259.241 84.373C258.93 83.3836 258.774 82.2875 258.774 81.0847C258.774 79.8818 258.93 78.7954 259.241 77.8254C259.553 76.836 260.001 76.0018 260.585 75.3228C261.169 74.6243 261.889 74.0908 262.746 73.7222C263.603 73.3536 264.576 73.1693 265.666 73.1693C267.185 73.1693 268.431 73.5088 269.405 74.1878C270.378 74.8668 271.089 75.769 271.537 76.8942L268.908 78.1164C268.694 77.418 268.314 76.8651 267.769 76.4577C267.243 76.0309 266.543 75.8175 265.666 75.8175C264.498 75.8175 263.612 76.1861 263.009 76.9233C262.425 77.6411 262.133 78.582 262.133 79.746V82.4524C262.133 83.6164 262.425 84.567 263.009 85.3042C263.612 86.022 264.498 86.381 265.666 86.381C266.601 86.381 267.341 86.1578 267.886 85.7116C268.451 85.246 268.898 84.6349 269.229 83.8783L271.653 85.1587C271.147 86.4004 270.388 87.351 269.375 88.0106C268.363 88.6702 267.127 89 265.666 89Z" fill="#666666"/>
<path d="M274.684 67.1164H277.867V76.0212H278.013C278.344 75.2063 278.841 74.5273 279.503 73.9841C280.184 73.4409 281.109 73.1693 282.277 73.1693C283.835 73.1693 285.042 73.6834 285.899 74.7116C286.775 75.7205 287.213 77.1658 287.213 79.0476V88.6508H284.03V79.4259C284.03 77.0785 283.076 75.9048 281.168 75.9048C280.759 75.9048 280.35 75.963 279.941 76.0794C279.552 76.1764 279.201 76.3316 278.89 76.545C278.578 76.7584 278.325 77.03 278.13 77.3598C277.955 77.6896 277.867 78.0679 277.867 78.4947V88.6508H274.684V67.1164Z" fill="#666666"/>
<path d="M293.232 70.8122C292.57 70.8122 292.083 70.657 291.771 70.3466C291.479 70.0362 291.333 69.6384 291.333 69.1534V68.6587C291.333 68.1737 291.479 67.776 291.771 67.4656C292.083 67.1552 292.57 67 293.232 67C293.894 67 294.371 67.1552 294.663 67.4656C294.955 67.776 295.101 68.1737 295.101 68.6587V69.1534C295.101 69.6384 294.955 70.0362 294.663 70.3466C294.371 70.657 293.894 70.8122 293.232 70.8122ZM291.625 73.5185H294.809V88.6508H291.625V73.5185Z" fill="#666666"/>
<path d="M299.354 88.6508V73.5185H302.538V76.0212H302.684C303.015 75.2063 303.511 74.5273 304.173 73.9841C304.855 73.4409 305.78 73.1693 306.948 73.1693C308.505 73.1693 309.713 73.6834 310.569 74.7116C311.445 75.7205 311.883 77.1658 311.883 79.0476V88.6508H308.7V79.455C308.7 77.0882 307.746 75.9048 305.838 75.9048C305.429 75.9048 305.02 75.963 304.611 76.0794C304.222 76.1764 303.871 76.3316 303.56 76.545C303.248 76.7584 302.995 77.03 302.801 77.3598C302.625 77.6896 302.538 78.0776 302.538 78.5238V88.6508H299.354Z" fill="#666666"/>
<path d="M322.254 89C321.163 89 320.19 88.8157 319.333 88.4471C318.476 88.0785 317.746 87.5547 317.143 86.8757C316.539 86.1772 316.072 85.343 315.741 84.373C315.429 83.3836 315.274 82.2875 315.274 81.0847C315.274 79.8818 315.429 78.7954 315.741 77.8254C316.072 76.836 316.539 76.0018 317.143 75.3228C317.746 74.6243 318.476 74.0908 319.333 73.7222C320.19 73.3536 321.163 73.1693 322.254 73.1693C323.363 73.1693 324.337 73.3633 325.174 73.7513C326.031 74.1393 326.741 74.6825 327.306 75.381C327.871 76.06 328.289 76.8554 328.562 77.7672C328.854 78.679 329 79.6587 329 80.7063V81.8995H318.574V82.3942C318.574 83.5582 318.914 84.5185 319.596 85.2751C320.297 86.0123 321.29 86.381 322.575 86.381C323.509 86.381 324.298 86.1772 324.94 85.7698C325.583 85.3624 326.128 84.8095 326.576 84.1111L328.445 85.9444C327.88 86.8757 327.063 87.6226 325.992 88.1852C324.921 88.7284 323.675 89 322.254 89ZM322.254 75.6429C321.708 75.6429 321.202 75.7399 320.735 75.9339C320.287 76.1279 319.898 76.3995 319.567 76.7487C319.255 77.0979 319.012 77.515 318.837 78C318.661 78.485 318.574 79.0185 318.574 79.6005V79.8042H325.641V79.5132C325.641 78.3492 325.34 77.418 324.736 76.7196C324.132 76.0018 323.305 75.6429 322.254 75.6429Z" fill="#666666"/>
<path d="M156.395 29.6489H156.203L152.941 36.1856L144.24 52.0147L135.731 36.2497L132.34 29.2003H132.148V59H123V14.2684H133.3L144.24 35.2243H144.368L155.18 14.2684H165.544V59H156.395V29.6489Z" fill="#333333"/>
<path d="M179.64 21.7664C177.721 21.7664 176.313 21.3391 175.417 20.4846C174.564 19.5874 174.138 18.4553 174.138 17.0881V15.6782C174.138 14.3111 174.564 13.2003 175.417 12.3458C176.313 11.4486 177.721 11 179.64 11C181.559 11 182.945 11.4486 183.798 12.3458C184.694 13.2003 185.142 14.3111 185.142 15.6782V17.0881C185.142 18.4553 184.694 19.5874 183.798 20.4846C182.945 21.3391 181.559 21.7664 179.64 21.7664ZM174.906 25.3551H184.374V59H174.906V25.3551Z" fill="#333333"/>
<path d="M189.948 59L201.016 41.8892L190.076 25.3551H200.824L207.094 35.9292H207.35L213.427 25.3551H223.408L212.276 42.2096L223.472 59H212.724L206.262 48.0414H206.006L199.801 59H189.948Z" fill="#333333"/>
<path d="M233.744 21.7664C231.825 21.7664 230.417 21.3391 229.522 20.4846C228.669 19.5874 228.242 18.4553 228.242 17.0881V15.6782C228.242 14.3111 228.669 13.2003 229.522 12.3458C230.417 11.4486 231.825 11 233.744 11C235.663 11 237.049 11.4486 237.902 12.3458C238.798 13.2003 239.246 14.3111 239.246 15.6782V17.0881C239.246 18.4553 238.798 19.5874 237.902 20.4846C237.049 21.3391 235.663 21.7664 233.744 21.7664ZM229.01 25.3551H238.478V59H229.01V25.3551Z" fill="#333333"/>
<path d="M247.315 59V25.3551H256.784V31.0587H257.168C257.765 29.3071 258.81 27.7904 260.302 26.5087C261.795 25.227 263.864 24.5861 266.508 24.5861C269.963 24.5861 272.564 25.7397 274.313 28.0467C276.104 30.3538 277 33.6435 277 37.9159V59H267.532V38.6849C267.532 36.506 267.19 34.9039 266.508 33.8785C265.826 32.8104 264.61 32.2764 262.861 32.2764C262.094 32.2764 261.347 32.3832 260.622 32.5968C259.897 32.7677 259.236 33.0668 258.639 33.494C258.085 33.9212 257.637 34.4553 257.296 35.0961C256.954 35.6943 256.784 36.3992 256.784 37.2109V59H247.315Z" fill="#333333"/>
<path d="M25.1767 10.0889C36.8033 3.36298 42.6166 0 49 0C55.3834 0 61.1967 3.36298 72.8233 10.0889L74.1767 10.8719C85.8033 17.5978 91.6166 20.9608 94.8083 26.5C98 32.0392 98 38.7652 98 52.2171V53.7829C98 67.2348 98 73.9608 94.8083 79.5C91.6166 85.0392 85.8033 88.4022 74.1767 95.1281L72.8233 95.9111C61.1967 102.637 55.3834 106 49 106C42.6166 106 36.8033 102.637 25.1767 95.9111L23.8233 95.1281C12.1967 88.4022 6.38343 85.0392 3.19172 79.5C0 73.9608 0 67.2348 0 53.7829V52.2171C0 38.7652 0 32.0392 3.19172 26.5C6.38343 20.9608 12.1967 17.5978 23.8233 10.8719L25.1767 10.0889Z" fill="#5959D8"/>
<path d="M23.7094 29.2124C23.244 29.3709 22.8171 29.6127 22.4467 29.92C22.0569 30.2424 21.7424 30.626 21.5075 31.0469C21.1836 31.6245 20.999 32.2907 20.999 33V73C20.999 73.7882 21.227 74.5232 21.6207 75.1426C21.7853 75.4024 21.9817 75.6456 22.2089 75.8662C22.9295 76.5678 23.9138 77 24.999 77C25.7199 77 26.3962 76.8093 26.9803 76.4757C27.3959 76.2392 27.7744 75.9247 28.0924 75.5362C28.1651 75.4476 28.2341 75.3558 28.2991 75.2611L37.281 62.5367L32.3849 55.6005L28.999 60.3971V45.6023L45.7315 69.3066C46.481 70.3684 47.6997 70.9998 48.9994 70.9998C50.299 70.9998 51.5177 70.3684 52.2672 69.3066L68.999 45.6032V60.3962L65.6141 55.6008L60.7179 62.537L69.6812 75.235C69.8146 75.4327 69.9652 75.6178 70.1309 75.7882C70.3427 76.0066 70.5754 76.1966 70.8236 76.3573C71.4498 76.7639 72.1968 77 72.999 77C73.9855 77 74.8885 76.6429 75.586 76.0509C76.0054 75.6962 76.3355 75.2697 76.5709 74.8025C76.784 74.3809 76.9247 73.9165 76.9766 73.4256C76.9945 73.2591 77.0021 73.0914 76.999 72.9235V33.0759C77.0023 32.8957 76.9934 32.7157 76.9726 32.5373C76.9248 32.1227 76.8137 31.7274 76.6491 31.3613C76.367 30.7315 75.9183 30.1666 75.3152 29.7384C75.1265 29.6042 74.9257 29.4859 74.7146 29.3856C74.0626 29.0752 73.3546 28.9555 72.6645 29.0138C72.1227 29.0586 71.6114 29.2115 71.1524 29.4508C70.7002 29.6857 70.2875 30.0101 69.9429 30.4192C69.854 30.5244 69.7704 30.6342 69.6926 30.7483L48.9994 60.0636L28.2672 30.6931C27.8489 30.1004 27.2988 29.656 26.6846 29.3715C26.2785 29.1825 25.8353 29.0597 25.369 29.0169C24.8155 28.9652 24.2495 29.0282 23.7094 29.2124Z" fill="white"/>
<path d="M48.9994 45.9357L52.1497 50.3987L57.0458 43.4624L52.2672 36.6928C51.5177 35.631 50.299 34.9995 48.9994 34.9995C47.6997 34.9995 46.481 35.631 45.7315 36.6928L40.9531 43.4621L45.8493 50.3983L48.9994 45.9357Z" fill="white"/>
</svg>
